<svg viewBox="0 0 54 41" xmlns="http://www.w3.org/2000/svg"><g fill="#103d64"><path d="m16.21 6h-.62v28.76a1.85 1.85 0 0 1 -1.85 1.85h-5.56a1.86 1.86 0 0 1 -1.86-1.85v-28.76h-.62a1 1 0 0 0 -1 1v29.2a1.93 1.93 0 0 0 2 1.8h10.51v-31a1 1 0 0 0 -1-1z"/><rect height="35.68" rx="2" width="7.41" x="7.25"/><path d="m46.87 9.86h-.46v-8.25a1.62 1.62 0 0 0 -1.62-1.61h-23.64a1.62 1.62 0 0 0 -1.62 1.61v8.25h-1.39v28.14h27.86a1.86 1.86 0 0 0 1.85-1.85v-25.37a.93.93 0 0 0 -.98-.92zm-24.56 23.76a1.16 1.16 0 1 1 1.16-1.16 1.16 1.16 0 0 1 -1.16 1.16zm0-3.23a1.16 1.16 0 1 1 1.16-1.15 1.16 1.16 0 0 1 -1.16 1.15zm0-3.23a1.16 1.16 0 1 1 1.16-1.16 1.16 1.16 0 0 1 -1.16 1.16zm0-3.23a1.16 1.16 0 1 1 1.16-1.15 1.16 1.16 0 0 1 -1.16 1.15zm3.69 9.69a1.16 1.16 0 1 1 1.16-1.16 1.16 1.16 0 0 1 -1.16 1.16zm0-3.23a1.16 1.16 0 1 1 1.16-1.15 1.16 1.16 0 0 1 -1.16 1.15zm0-3.23a1.16 1.16 0 1 1 1.18-1.16 1.16 1.16 0 0 1 -1.18 1.16zm0-3.23a1.16 1.16 0 1 1 1.16-1.15 1.16 1.16 0 0 1 -1.16 1.15zm3.71 9.69a1.16 1.16 0 1 1 1.15-1.16 1.16 1.16 0 0 1 -1.13 1.16zm0-3.23a1.16 1.16 0 1 1 1.15-1.15 1.16 1.16 0 0 1 -1.13 1.15zm0-3.23a1.16 1.16 0 1 1 1.17-1.16 1.16 1.16 0 0 1 -1.15 1.16zm0-3.23a1.16 1.16 0 1 1 1.15-1.15 1.16 1.16 0 0 1 -1.13 1.15zm6.48 9.69h-2a.54.54 0 0 1 -.54-.53v-.09a.54.54 0 0 1 .54-.53h2zm3.48-.53a.54.54 0 0 1 -.54.53h-2v-1.15h2a.54.54 0 0 1 .54.53zm0-2.6a.49.49 0 0 1 -.48.48h-5.04a.49.49 0 0 1 -.49-.48v-.08a.49.49 0 0 1 .49-.48h5.06a.49.49 0 0 1 .48.48zm-3-4.71a.93.93 0 1 1 0-1.85.93.93 0 0 1 0 1.85zm1.77 1.49a3 3 0 0 1 -1.77.58 3 3 0 0 1 -1.77-.58l1-1a1.66 1.66 0 0 0 .77.2 1.62 1.62 0 0 0 .76-.2zm-1-3.83a1.51 1.51 0 0 0 -.76-.2 1.55 1.55 0 0 0 -.77.2l-1-1a3 3 0 0 1 1.77-.59 3 3 0 0 1 1.77.59zm-2.18.65a1.5 1.5 0 0 0 0 1.53l-1 1a3 3 0 0 1 -.59-1.77 3 3 0 0 1 .59-1.76zm3.84 2.53-1-1a1.56 1.56 0 0 0 0-1.53l1-1a2.93 2.93 0 0 1 .59 1.76 3 3 0 0 1 -.59 1.77zm5.8 7.7a.45.45 0 0 1 -.45.45h-1.65a.45.45 0 0 1 -.45-.45v-.26a.45.45 0 0 1 .45-.44h1.65a.45.45 0 0 1 .45.44zm0-2.19a.45.45 0 0 1 -.45.45h-1.65a.45.45 0 0 1 -.45-.45v-.26a.45.45 0 0 1 .45-.44h1.65a.45.45 0 0 1 .45.44zm0-2.19a.45.45 0 0 1 -.45.45h-1.65a.45.45 0 0 1 -.45-.45v-.26a.45.45 0 0 1 .45-.44h1.65a.45.45 0 0 1 .45.44zm0-2.19a.45.45 0 0 1 -.45.45h-1.65a.45.45 0 0 1 -.45-.45v-.26a.46.46 0 0 1 .45-.49h1.65a.45.45 0 0 1 .45.45zm0-2.19a.45.45 0 0 1 -.45.45h-1.65a.46.46 0 0 1 -.45-.45v-.26a.45.45 0 0 1 .45-.45h1.65a.45.45 0 0 1 .45.45zm0-2.19a.45.45 0 0 1 -.45.44h-1.65a.45.45 0 0 1 -.45-.44v-.26a.45.45 0 0 1 .45-.45h1.65a.45.45 0 0 1 .45.45zm0-2.19a.45.45 0 0 1 -.45.44h-1.65a.45.45 0 0 1 -.45-.44v-.26a.45.45 0 0 1 .45-.45h1.65a.45.45 0 0 1 .45.45zm.58-11.32v7.14a.93.93 0 0 1 -.93.92h-23.17a.92.92 0 0 1 -.92-.92v-15.21a.93.93 0 0 1 .92-.93h23.17a.93.93 0 0 1 .93.93z"/><path d="m40.77 5.4v7.73h-15.61v-7.73zm1-1h-17.61v9.73h17.61z"/><path d="m23 4.4h-1.38a.47.47 0 1 0 0 .93h1.38a.47.47 0 0 0 0-.93z"/><path d="m23 6.16h-1.38a.47.47 0 1 0 0 .93h1.38a.47.47 0 0 0 0-.93z"/><path d="m23 7.92h-1.38a.47.47 0 1 0 0 .93h1.38a.47.47 0 0 0 0-.93z"/><path d="m23 9.69h-1.38a.46.46 0 0 0 -.47.46.47.47 0 0 0 .47.46h1.38a.47.47 0 0 0 .46-.46.46.46 0 0 0 -.46-.46z"/><path d="m23 11.45h-1.38a.46.46 0 0 0 -.47.46.47.47 0 0 0 .47.46h1.38a.47.47 0 0 0 .46-.46.46.46 0 0 0 -.46-.46z"/><path d="m23 13.21h-1.38a.47.47 0 0 0 -.47.46.46.46 0 0 0 .47.46h1.38a.46.46 0 0 0 .46-.46.47.47 0 0 0 -.46-.46z"/><path d="m44.32 4.4h-1.39a.47.47 0 0 0 0 .93h1.39a.47.47 0 1 0 0-.93z"/><path d="m44.32 6.16h-1.39a.47.47 0 0 0 0 .93h1.39a.47.47 0 1 0 0-.93z"/><path d="m44.32 7.92h-1.39a.47.47 0 0 0 0 .93h1.39a.47.47 0 1 0 0-.93z"/><path d="m44.32 9.69h-1.39a.46.46 0 0 0 -.46.46.47.47 0 0 0 .46.46h1.39a.47.47 0 0 0 .47-.46.46.46 0 0 0 -.47-.46z"/><path d="m44.32 11.45h-1.39a.46.46 0 0 0 -.46.46.47.47 0 0 0 .46.46h1.39a.47.47 0 0 0 .47-.46.46.46 0 0 0 -.47-.46z"/><path d="m44.32 13.21h-1.39a.47.47 0 0 0 -.46.46.46.46 0 0 0 .46.46h1.39a.46.46 0 0 0 .47-.46.47.47 0 0 0 -.47-.46z"/><path d="m26.48 15.52h-1.39a.47.47 0 0 0 0 .93h1.39a.47.47 0 1 0 0-.93z"/><path d="m40.62 15.52h-1.39a.47.47 0 1 0 0 .93h1.39a.47.47 0 0 0 0-.93z"/><path d="m30 15.52h-1.4a.47.47 0 0 0 0 .93h1.4a.47.47 0 0 0 0-.93z"/><path d="m33.55 15.52h-1.39a.47.47 0 0 0 0 .93h1.39a.47.47 0 0 0 0-.93z"/><path d="m37.08 15.52h-1.39a.47.47 0 0 0 0 .93h1.39a.47.47 0 1 0 0-.93z"/></g></svg>