<svg viewBox="0 0 54 41" xmlns="http://www.w3.org/2000/svg"><path d="m5.91 8.33h42.18a1.13 1.13 0 0 1 1.13 1.13v26.61a1.88 1.88 0 0 1 -1.87 1.88h-40.69a1.88 1.88 0 0 1 -1.87-1.87v-26.63a1.13 1.13 0 0 1 1.12-1.12z" fill="#103d64"/><path d="m46.48 12.49h-13.13a2.37 2.37 0 0 1 -1.45.51 2.4 2.4 0 0 1 -1.46-.46h-13.12a.93.93 0 0 0 -.93.93v19.04a1.28 1.28 0 0 0 1.28 1.27h28.46a1.27 1.27 0 0 0 1.27-1.27v-19.09a.93.93 0 0 0 -.92-.93z" fill="#fff"/><ellipse cx="31.9" cy="10.64" fill="#fff" rx="2.08" ry="1.62"/><path d="m18.72 14.79h26.36v15.25h-26.36z" fill="#fff"/><path d="m44.7 15.17v14.5h-25.61v-14.5zm.75-.75h-27.11v16h27.11z" fill="#103d64"/><path d="m8.26 36.54a2.27 2.27 0 0 1 -1.94-1.8l.46-16.27-.46-16.32a2.23 2.23 0 0 1 1.94-1.78h4.63a2.28 2.28 0 0 1 1.92 1.85c0 .1-.45 12.16-.45 16.29s.46 16.17.46 16.29a2.3 2.3 0 0 1 -1.93 1.84z" fill="#103d64"/><path d="m12.89.7a2 2 0 0 1 1.55 1.44c0 .12-.45 12.18-.45 16.32s.45 16.18.46 16.28a2 2 0 0 1 -1.56 1.47l-4.63-.05a1.93 1.93 0 0 1 -1.57-1.4l.46-16.33-.46-16.26a1.91 1.91 0 0 1 1.57-1.42zm0-.75-4.63.05a2.6 2.6 0 0 0 -2.32 2.17l.47 16.29-.47 16.28a2.61 2.61 0 0 0 2.32 2.17l4.62.05a2.66 2.66 0 0 0 2.32-2.22s-.46-12.12-.46-16.28.44-16.29.44-16.29a2.63 2.63 0 0 0 -2.3-2.17z" fill="#fff"/><g fill="#103d64"><circle cx="21.91" cy="31.93" r=".46"/><circle cx="42.27" cy="31.93" r=".46"/><circle cx="32.09" cy="31.93" r=".46"/><circle cx="27" cy="31.93" r=".46"/><circle cx="37.18" cy="31.93" r=".46"/></g></svg>