<svg viewBox="0 0 54 41" xmlns="http://www.w3.org/2000/svg"><g fill="#103d64"><circle cx="23.06" cy="14.95" r="1.27"/><circle cx="30.94" cy="14.95" r="1.27"/><circle cx="27" cy="14.95" r="1.27"/><circle cx="27" cy="18.3" r="1.27"/><circle cx="23.06" cy="18.3" r="1.27"/><circle cx="30.94" cy="18.3" r="1.27"/><circle cx="23.06" cy="21.66" r="1.27"/><circle cx="27" cy="21.66" r="1.27"/><circle cx="30.94" cy="21.66" r="1.27"/><circle cx="23.06" cy="25.02" r="1.27"/><circle cx="27" cy="25.02" r="1.27"/><circle cx="30.94" cy="25.02" r="1.27"/><rect height="3.01" rx="1.51" width="11.12" x="21.44" y="27.34"/><path d="m33.8 0h-13.6a2 2 0 0 0 -2 2v34a2 2 0 0 0 2 2h13.6a2 2 0 0 0 2-2v-34a2 2 0 0 0 -2-2zm-6.8 1.39a4.64 4.64 0 1 1 -4.63 4.61 4.63 4.63 0 0 1 4.63-4.61zm6.84 29.12a1 1 0 0 1 -1 1h-11.68a1 1 0 0 1 -1-1v-17a1 1 0 0 1 1-1h11.68a1 1 0 0 1 1 1z"/><circle cx="27" cy="6.02" r="3.71"/></g></svg>